<svg width="136" height="30" viewBox="0 0 136 30" fill="none" xmlns="http://www.w3.org/2000/svg">
<g clip-path="url(#clip0_1642_1501)">
<path fill-rule="evenodd" clip-rule="evenodd" d="M15.5889 0.0833643C18.6993 0.00959695 21.7549 0.910404 24.3282 2.65969C26.9014 4.40897 28.8634 6.91918 29.9397 9.839C31.016 12.7588 31.1528 15.9421 30.3308 18.9435C29.9671 20.2718 28.5956 21.0536 27.2676 20.6898C25.9395 20.326 25.1578 18.9543 25.5216 17.6261C26.0688 15.6277 25.9778 13.5082 25.2612 11.5642C24.5445 9.62017 23.2383 7.94894 21.5251 6.78435C19.812 5.61976 17.7778 5.02008 15.7071 5.06919C13.6364 5.1183 11.6329 5.81374 9.97684 7.05823C8.32082 8.30273 7.09517 10.034 6.47148 12.0098C5.84778 13.9856 5.85726 16.1071 6.49859 18.0772C7.13993 20.0474 8.381 21.7676 10.0481 22.9973C11.7152 24.2269 13.7248 24.9044 15.7959 24.935C17.1727 24.9553 18.2723 26.0881 18.252 27.4652C18.2317 28.8422 17.099 29.942 15.7222 29.9217C12.6113 29.8757 9.59254 28.858 7.08849 27.0111C4.58444 25.1641 2.72039 22.5802 1.75714 19.6212C0.793904 16.6621 0.779664 13.4759 1.71642 10.5083C2.65317 7.54078 4.49405 4.94038 6.98149 3.07108L8.47917 5.06466L6.98149 3.07108C9.46893 1.20178 12.4785 0.157131 15.5889 0.0833643Z" fill="#121920"/>
<path d="M27.1634 24.7101C27.1634 26.7981 25.471 28.4908 23.3834 28.4908C21.2957 28.4908 19.6033 26.7981 19.6033 24.7101C19.6033 22.6221 21.2957 20.9294 23.3834 20.9294C25.471 20.9294 27.1634 22.6221 27.1634 24.7101Z" fill="#F95A59"/>
<path fill-rule="evenodd" clip-rule="evenodd" d="M61.4567 23.9581H56.477L55.7734 23.0379C54.7991 23.4168 53.933 23.6874 53.1753 23.9039C52.4175 24.0663 51.6056 24.1746 50.6854 24.1746C47.6543 24.1746 45.2727 23.4168 43.5947 21.9554C41.8085 20.4398 40.9425 18.1123 40.9425 15.1353C40.9425 12.1042 41.7544 9.77673 43.3241 8.20704C44.9479 6.63735 47.3836 5.82544 50.6854 5.82544C53.8789 5.82544 56.3146 6.69148 57.9926 8.36942C59.454 9.83086 60.1577 11.7253 60.1577 13.9987C60.1577 15.6766 60.1036 16.9215 59.9412 17.6793C59.7247 18.8701 59.1834 20.0068 58.4256 21.0352L61.4567 23.9581ZM55.7734 14.9729C55.7734 13.3491 55.4486 12.0501 54.745 11.0217C53.8789 9.7226 52.4716 9.07308 50.6313 9.07308C48.8992 9.07308 47.546 9.56022 46.68 10.5886C45.814 11.5629 45.3809 13.0244 45.3809 14.9188C45.3809 17.0298 45.8681 18.5995 46.8965 19.5738C47.8167 20.4398 49.1698 20.8728 50.956 20.8728C52.5799 20.8728 53.7707 20.3857 54.5826 19.4114C55.3945 18.383 55.7734 16.9215 55.7734 14.9729Z" fill="#F95A59"/>
<path fill-rule="evenodd" clip-rule="evenodd" d="M80.2392 18.383C80.2392 19.9527 79.698 21.2517 78.6696 22.3343C77.6411 23.4168 76.3421 23.9039 74.7183 23.9039H62.269V20.7104H72.6073C73.311 20.7104 73.9064 20.5481 74.3394 20.2233C74.8806 19.8444 75.1513 19.3573 75.1513 18.7077C75.1513 17.1922 74.0687 16.4344 71.9578 16.4344H66.7616C65.246 16.4344 63.9469 15.9472 62.8103 15.0271C61.6736 14.1069 61.1323 12.9161 61.1323 11.4547C61.1323 9.88499 61.6736 8.58593 62.8103 7.61164C63.8928 6.63735 65.3543 6.15021 67.1946 6.15021H79.1567V9.18133H68.5478C68.0606 9.18133 67.5735 9.39784 67.1405 9.77673C66.5992 10.1556 66.3827 10.6428 66.3827 11.184C66.3827 11.7794 66.5992 12.3207 67.0863 12.6996C67.5735 13.1326 68.1147 13.295 68.7643 13.295H74.5018C76.288 13.295 77.6953 13.7821 78.7237 14.7023C79.7521 15.6225 80.2392 16.8674 80.2392 18.383Z" fill="#F95A59"/>
<path fill-rule="evenodd" clip-rule="evenodd" d="M100.699 14.973C100.699 18.4371 99.7251 20.8728 97.8306 22.3884C96.2609 23.5792 93.9876 24.1746 91.0647 24.1746C87.7629 24.1746 85.3272 23.4709 83.7575 22.1178C82.0255 20.6022 81.1594 18.1665 81.1594 14.8106C81.1594 12.0501 81.9172 9.88499 83.4869 8.36943C85.1648 6.69149 87.6547 5.87958 91.0106 5.87958C94.6912 5.87958 97.2352 6.69149 98.7508 8.26118C100.05 9.66849 100.699 11.8877 100.699 14.973ZM96.1527 14.8647C96.1527 13.1326 95.7197 11.7253 94.9077 10.6969C93.9876 9.56023 92.5803 8.96483 90.7941 8.96483C89.0079 8.96483 87.6547 9.56023 86.7345 10.8052C85.9767 11.8336 85.5979 13.1868 85.5979 14.8106C85.5979 16.705 85.9226 18.1123 86.518 19.0325C87.3841 20.2774 88.8996 20.927 91.2271 20.927C93.1757 20.927 94.5289 20.3316 95.2866 19.0866C95.882 18.2206 96.1527 16.7592 96.1527 14.8647Z" fill="#F95A59"/>
<path fill-rule="evenodd" clip-rule="evenodd" d="M118.507 16.4885H106.274V23.8498H101.89V12.9702C101.89 12.3207 101.998 11.5629 102.269 10.751C102.756 9.28959 103.676 8.20704 105.029 7.44926C106.599 6.58323 109.197 6.15021 112.769 6.15021C120.401 6.15021 128.033 6.15021 135.665 6.15021V9.12721H129.062V23.8498H124.948V9.12721C120.726 9.12721 116.721 9.07308 112.499 9.07308C110.875 9.07308 109.738 9.18133 109.089 9.34372C107.952 9.61435 107.194 10.2639 106.707 11.184C106.328 11.8877 106.166 12.6455 106.166 13.5115H118.507V16.4885Z" fill="#F95A59"/>
</g>
<defs>
<clipPath id="clip0_1642_1501">
<rect width="135" height="30" fill="white" transform="translate(0.942505)"/>
</clipPath>
</defs>
</svg>
